<?xml version="1.0" encoding="UTF-8"?> <svg xmlns="http://www.w3.org/2000/svg" width="319.58" height="49.67" viewBox="0 0 319.58 49.67"><title>luxury-logo</title><g id="e9d851a2-938c-4e6b-924c-ffcf35fa6c81" data-name="Layer 2"><g id="a954608c-e49f-4d3b-84f2-e4046f88da9b" data-name="Layer 1"><g><polygon points="135.83 0 124.52 16.46 113.21 0 102.41 0 119.14 24.3 102.41 48.65 113.55 48.86 124.81 32.52 135.92 48.65 146.64 48.65 130.19 24.71 147.06 0.22 135.83 0"></polygon><polygon points="302.85 24.3 319.58 0 308.78 0 297.53 16.55 286.16 0 275.35 0 292.72 25.21 293.2 26.12 293.2 48.65 301.73 48.65 301.73 25.92 302.85 24.3 302.85 24.3"></polygon><path d="M258.44,14.39c0-8.64-5.58-14.3-14-14.3h-22V48.53h8.58V28.79H241l12.71,19.77,10.43.09L250.38,27.09S258.44,23,258.44,14.39Zm-13.76,5.28H231.17V8.84h13.51a5.42,5.42,0,1,1,0,10.83Z"></path><path d="M8.61,0H0V48.55l28.22,0c.12,0,.23-.14.38-.24V39.71h-20Z"></path><path d="M201.93.15h-8.64V2.58c0,9,0,18,0,27,0,5.44-3.21,9.82-7.91,11a10.56,10.56,0,0,1-13.38-10c0-.23,0-.46,0-.69V.12h-8.79V30s0,.61.1,1.53a17.18,17.18,0,0,0,.7,4.34,10.33,10.33,0,0,0,1,2.53h0a19.92,19.92,0,0,0,11.31,10.33,21.38,21.38,0,0,0,12.5-.07c8.5-3.06,13.25-9.95,13.27-19.43q0-13.49,0-27C202,1.55,202,.82,201.93.15Z"></path><path d="M85.86.15H77.22V2.58c0,9,0,18,0,27,0,5.44-3.21,9.82-7.9,11a10.56,10.56,0,0,1-13.38-10c0-.23,0-.46,0-.69V.12h-8.8V30s0,.61.1,1.53a17.2,17.2,0,0,0,.71,4.34,10.74,10.74,0,0,0,.95,2.53h0A20,20,0,0,0,60.18,48.76a21.38,21.38,0,0,0,12.5-.07c8.5-3.06,13.26-9.95,13.27-19.43q0-13.49,0-27C86,1.55,85.89.82,85.86.15Z"></path></g></g></g></svg> 