<?xml version="1.0" encoding="UTF-8"?> <svg xmlns="http://www.w3.org/2000/svg" width="328.06" height="81.71" viewBox="0 0 328.06 81.71"><title>outside-logo</title><g id="faa84a98-c3cd-4d59-a5f2-fbdeed167e5e" data-name="Layer 2"><g id="eeaa6b52-6a0b-44a3-8dd5-a22d2a467a1f" data-name="Layer 1"><g><path d="M38.32,81.37c21.73,0,36.27-15.81,37.82-37h3.67V67.67c0,9.32,6.5,12.85,14.82,12.85a17.82,17.82,0,0,0,15.25-9.18v8.47h20.18V69.09h-6.21V44.24h9.88V63.3c0,11.43,4.52,17.08,15,17.08,6.07,0,9.32-3,11.58-6.21v5.64h9.31V73.74c4.8,5.23,9.6,6.78,16.66,6.78,6.49,0,11.85-2.26,14.68-6.49v5.78H231.4V72.9c3.25,4.8,8.75,7.48,16.09,7.48,6.5,0,10.73-2.83,14-7.77v7.2h22.3v-7c4.37,5.78,10.73,8,19.34,8C315,80.8,326,76,327.67,62.59H313.83c-1.13,5.79-3.81,8.47-9.88,8.47-5.08,0-8.75-3.1-8.89-12h32.18v-2c0-15.1-8.89-24.56-23.29-24.56-13.26,0-24.13,9.17-24.13,24a28.55,28.55,0,0,0,2.26,12.14h-6.36V17.71h-22.3v11h8.33V40a14.59,14.59,0,0,0-12.28-6.63c-13.69,0-21,9.73-21,22.86a36.62,36.62,0,0,0,2,12.56h-7.34V33.38H190.47v5.78c-2.54-3.67-6.35-6.21-12.84-6.21-7.91,0-12.85,2.4-15.25,5.65V33.23H148.27V21.1H137.12c0,8.32-2.12,12.13-13.13,12.13H102.4v11.3H110V58.92c0,5.79-3,10.17-9.18,10.17-5.36,0-6.77-3.53-6.77-8.33V33.23H75.58C72.19,15.17,59.2.35,38.32.35,14.18.35.35,18,.35,41.28c0,22.58,15.24,40.09,38,40.09M183.7,71.63c-6.64,0-9.6-3-12.71-8H155.18c.29,5.08.15,7.91-3.24,7.91s-3.81-3.39-3.81-6.22v-21h12.7a12.31,12.31,0,0,0-.14,2.26c0,21.17,28.93,12.56,28.93,21.32.29,3.1-3.24,3.81-5.92,3.81m19.05-2.69a27.59,27.59,0,0,0,.28-3.52c0-20.19-29.36-12-29.36-20.19,0-2.82,3.67-3.24,6.92-3.24,4.66,0,7.34,1.41,9.32,5.78h12V44.38h8.33V68.94Zm-162.32.29c-11.43.14-18.35-18.07-18.35-34,0-9.17,3.53-23.15,14-23.15,13.83,0,18.49,22.44,18.49,33.31,0,10.17-3.25,23.86-14.12,23.86M253,69.65c-7.62,0-9.32-7.62-9.32-13.83s2.4-12.56,9.6-12.56c5.65,0,8.61,5.36,8.61,10.86v4.66c0,5.22-2.82,10.87-8.89,10.87m42.34-17.93c1-6.77,4.52-9.31,8.75-9.31,5.79,0,7.91,3.39,8.33,9.31ZM209.81,29.85h13.27V17.71H209.81Z"></path><path d="M38.31,81.71C16.11,81.71,0,64.71,0,41.28c0-11.84,3.47-22,10-29.43C16.88,4.1,26.66,0,38.31,0,57.29,0,72,12.9,75.86,32.89H94.42V60.76c0,5.52,2,8,6.42,8,5.53,0,8.83-3.67,8.83-9.82V44.87h-7.62v-12H124c10.87,0,12.78-3.8,12.78-11.79v-.35h11.85V32.89h14.11v4.73c2.92-3.24,8.16-5,14.9-5,5.46,0,9.56,1.81,12.49,5.51V33h33.3V68.46h6.5a37.46,37.46,0,0,1-1.83-12.22c0-14.32,8.19-23.21,21.38-23.21a14.78,14.78,0,0,1,11.93,5.91V29.06h-8.32V17.36h23v51h5.46a30,30,0,0,1-2.06-11.8c0-14.1,10.3-24.34,24.48-24.34,14.58,0,23.64,9.55,23.64,24.91v2.32H295.42c.2,7.5,3.07,11.3,8.53,11.3,5.72,0,8.39-2.29,9.54-8.18l.06-.28h14.51l-.05.39c-1.49,11.76-10.56,18.51-24.9,18.51-8.72,0-14.79-2.36-19-7.4v6.41h-23V73.73a15.69,15.69,0,0,1-13.63,7c-6.89,0-12.31-2.34-15.74-6.76v6.19H200.57V75.09c-3,3.68-8.11,5.78-14.33,5.78-7.28,0-11.94-1.77-16.31-6.25v5.54h-10V75.23a13.14,13.14,0,0,1-11.23,5.5c-10.44,0-15.31-5.54-15.31-17.43V44.59H124.2V68.74h6.21V80.16H109.53V72.6a18.24,18.24,0,0,1-14.9,8.27c-9.78,0-15.16-4.69-15.16-13.2V44.73h-3C74.7,66.87,59.41,81.71,38.31,81.71Zm0-81c-11.45,0-21,4-27.77,11.62C4.1,19.59.69,29.61.69,41.28.69,64.31,16.52,81,38.31,81,59.13,81,74.19,66.29,75.8,44.36l0-.32h4.34V67.67c0,4.67,1.88,12.5,14.47,12.5a17.54,17.54,0,0,0,14.94-9l.65.16v8.13h19.49v-10H123.5V43.9h10.58V63.3c0,11.41,4.64,16.73,14.61,16.73A12.73,12.73,0,0,0,160,74l.63-.91v6.41h8.62V72.85l.61.66c4.46,4.86,8.9,6.66,16.4,6.66,6.46,0,11.7-2.31,14.39-6.34l.63-1v6.59h29.8V71.76l.63.94c3.25,4.8,8.71,7.33,15.8,7.33,5.93,0,10.28-2.42,13.69-7.61l.64-1v8h21.6V71.72l.63.83c4.08,5.39,10.13,7.9,19.06,7.9,13.79,0,22.57-6.37,24.16-17.51H314.12c-1.25,6-4.21,8.47-10.17,8.47s-9.11-4.15-9.24-12.34v-.35h32.18V57.09c0-14.94-8.79-24.21-22.94-24.21-14,0-23.79,9.72-23.79,23.64a28.32,28.32,0,0,0,2.23,12l.24.5h-7.25V18.06H253.77V28.37h8.33V41.14l-.64-.94a14.26,14.26,0,0,0-12-6.48c-12.76,0-20.68,8.63-20.68,22.52a36.1,36.1,0,0,0,2,12.44l.18.47h-8.19V33.72H190.82v6.55l-.63-.91c-2.87-4.14-6.86-6.06-12.56-6.06-7,0-12.34,2-15,5.5l-.62.85V33.58H147.92V21.44H137.46c-.06,8-2.24,12.14-13.47,12.14H102.74v10.6h7.62V58.92c0,6.58-3.55,10.51-9.52,10.51-6.38,0-7.12-5-7.12-8.67V33.58H75.29l-.05-.28C70.73,9.26,53.21.69,38.31.69ZM183.7,72c-6.64,0-9.69-2.82-12.9-8H155.55c.17,3.18.16,5.7-1,7a3.35,3.35,0,0,1-2.57.92c-4.16,0-4.16-4.76-4.16-6.56V43.9h13.47l-.08.41A12.39,12.39,0,0,0,161,46.5c0,12.6,10.43,14.4,18.82,15.85,5.43.94,10.11,1.75,10.11,5.47a3.1,3.1,0,0,1-.78,2.47C187.85,71.75,185.17,72,183.7,72Zm-28.88-8.74h16.37l.1.17c3.12,5.11,6,7.88,12.41,7.88,1.36,0,3.82-.19,5-1.46a2.44,2.44,0,0,0,.61-2c0-3.17-4.21-3.89-9.54-4.82-8.19-1.41-19.4-3.35-19.4-16.53a15.74,15.74,0,0,1,.08-1.91H148.47V65.27c0,4.06,1.07,5.87,3.47,5.87a2.71,2.71,0,0,0,2.07-.71c1.05-1.12,1-3.76.83-6.83ZM253,70c-8.41,0-9.66-8.89-9.66-14.18,0-12,7.61-12.91,9.94-12.91,5.88,0,9,5.64,9,11.21v4.66C262.24,64.18,259.35,70,253,70Zm.28-26.4C244.7,43.6,244,53,244,55.82c0,5,1.17,13.48,9,13.48,5.87,0,8.54-5.45,8.54-10.52V54.12C261.54,48.9,258.71,43.6,253.28,43.6Zm-213,26a12.19,12.19,0,0,1-8.67-3.92c-5.92-5.84-9.89-18.08-9.89-30.45,0-8.13,3-23.5,14.32-23.5,6.17,0,11.28,4.43,14.75,12.8a59.33,59.33,0,0,1,4.08,20.86c0,3.5-.39,10.22-3,15.89-2.52,5.44-6.47,8.31-11.45,8.31ZM36.06,12.41c-10.78,0-13.63,14.91-13.63,22.8,0,12.2,3.89,24.24,9.69,30a11.53,11.53,0,0,0,8.18,3.71h.13c6.35,0,13.77-6.16,13.77-23.51C54.2,35.05,49.63,12.41,36.06,12.41ZM210.58,69.29h-8.23l.06-.4a27.71,27.71,0,0,0,.28-3.47c0-12-10.65-13.73-19.2-15.09-5.45-.87-10.16-1.62-10.16-5.1,0-3.22,4.14-3.59,7.26-3.59,4.91,0,7.6,1.62,9.54,5.78h11.43V44h9Zm-7.43-.69h6.73V44.73h-7.63v3.39H189.68l-.09-.2c-1.84-4.07-4.28-5.59-9-5.59-4.48,0-6.57.92-6.57,2.9,0,2.89,4.23,3.56,9.58,4.41C192,51,203.38,52.79,203.38,65.42A27,27,0,0,1,203.15,68.6ZM312.8,52.07H294.94l.06-.39c1.16-8,5.58-9.62,9.09-9.62,5.53,0,8.2,3,8.68,9.64Zm-17.05-.69h16.3c-.52-6-2.91-8.62-8-8.62C299.56,42.76,296.68,45.73,295.75,51.38ZM223.42,30.19h-14V17.36h14Zm-13.26-.69h12.57V18.06H210.16Z"></path></g></g></g></svg> 