<?xml version="1.0" encoding="UTF-8"?> <svg xmlns="http://www.w3.org/2000/svg" width="353.51" height="38.66" viewBox="0 0 353.51 38.66"><title>the-drive-logo</title><g id="f9f9bfff-e7de-42d0-a1b1-c7935002ef27" data-name="Layer 2"><g id="f5a0b588-29b1-4429-9f60-abd3b83e3747" data-name="Layer 1"><path d="M10.84,19.09H0V11.48H34v7.61H23.14v19.3H10.84Z"></path><path d="M35.65,11.48H48V21H59.21v-9.5H71.52V38.39H59.21V28.74H48v9.65H35.65Z"></path><path d="M182.05,0h25.66a47.09,47.09,0,0,1,11.6,1.18,21.47,21.47,0,0,1,7.31,3.21,12.16,12.16,0,0,1,3.61,4,10.56,10.56,0,0,1,1.2,5.15v.11a9.94,9.94,0,0,1-2.78,7.13,19,19,0,0,1-7.58,4.61L233.3,38.39h-20l-9.91-11h-3.75v11H182.05Zm25.14,18.26a10.47,10.47,0,0,0,4.95-1,3,3,0,0,0,1.8-2.75v-.11a3,3,0,0,0-1.8-2.77,11,11,0,0,0-4.88-.9h-7.65v7.51Z"></path><path d="M232.85,0h17.56V38.39H232.85Z"></path><path d="M249.73,0h19.66L279.6,21.55,289.81,0h19.35L287.85,38.66h-16.8Z"></path><path d="M308.34,0h44.8V10.53H325.6v3.89h25.66v9.27H325.6v4.17h27.91V38.39H308.34Z"></path><polygon points="85.29 31.01 85.29 28.09 103.28 28.09 103.28 21.59 85.29 21.59 85.29 18.86 104.59 18.86 104.59 11.48 73.19 11.48 73.19 38.39 97.16 38.39 101.67 31.01 85.29 31.01"></polygon><path d="M180.68,11.11a16.69,16.69,0,0,0-5.85-5.95A31.31,31.31,0,0,0,165,1.34,62.44,62.44,0,0,0,151.34,0h-1.16l-19,31v7.43h19.51A59.84,59.84,0,0,0,164.66,37a32.15,32.15,0,0,0,10-4,17.49,17.49,0,0,0,6-6.14,15.88,15.88,0,0,0,2-7.84v-.11A15.58,15.58,0,0,0,180.68,11.11Zm-15.76,8.14a6.36,6.36,0,0,1-3.56,6.06q-3.57,1.89-9.64,1.89h-2.93v-16h2.93q6.08,0,9.64,1.89a6.36,6.36,0,0,1,3.56,6.06Z"></path><polygon points="123.71 38.39 100.14 38.39 123.62 0 147.2 0 123.71 38.39"></polygon></g></g></svg> 