<?xml version="1.0" encoding="UTF-8"?> <svg xmlns="http://www.w3.org/2000/svg" width="400" height="41.76" viewBox="0 0 400 41.76"><title>wsj-logo</title><g id="a091deb4-a50f-4cb5-b89b-ab50c1e77bc3" data-name="Layer 2"><g id="bed556ef-47ac-4523-9388-771158810af2" data-name="Layer 1"><path d="M3.52,5.79C2.75,2.27,2.27,1.73,1.14,1.44L0,1.14V.3H11.17v.84l-.9.18c-1.91.41-1.73,2.33-1.19,4.89L13.8,29.63,17.26,11,16,4.6c-.48-2.27-.66-3-1.85-3.28l-.78-.18V.3H24.31v.84L23,1.38c-2,.35-1.67,2.5-1.2,4.83l4.54,23.42L30.82,7.47c.84-4.6.42-5.74-1.37-6.09L28.2,1.14V.3h8.18v.84l-1.14.3c-1.43.36-1.79,1.49-2.62,5.49L25.33,41.7H23.77L18.16,14.58,13.08,41.7h-2ZM62,40.26h2.39c5.07,0,6.57-6,7.16-12.42h.9V41.46H41.87v-.84l1.26-.24c2.57-.47,2.57-1.19,1.91-4.78l-1.13-5.37H36.56l-.78,4.06c-.9,4.6-.42,5.73,1.37,6.09l1.26.24v.84h-8.3v-.84l1-.3c1.61-.47,2-1.43,2.87-5.49L41.28.06h1.79L50.72,36c.77,3.7,1.13,4.48,3.28,4.48,1.85,0,2.51-1,2.51-2.75V4c0-1.67-.54-2.21-1.73-2.51l-1.32-.36V.3H65.29v.89l-1.61.36C62.48,1.79,62,2.33,62,4V40.26ZM36.8,28.85h6.81l-3.47-17ZM82.2,40.26h2.38c5.08,0,6.58-6,7.17-12.42h.9V41.46H73.71v-.84L75,40.26c1.2-.3,1.74-.9,1.74-2.57V4c0-1.67-.54-2.21-1.74-2.51l-1.31-.36V.3H85.54v.89l-1.61.36c-1.2.24-1.73.78-1.73,2.45V40.26Zm29.93,1.44c-3.46,0-4.66-2.39-5.79-2.39-.66,0-1.44.17-2,2.15h-.72V27.84h.89c.72,7.7,3.59,12.54,7.59,12.54,2.69,0,4.54-2.45,4.54-6.87,0-9.32-13.32-13.32-13.32-23.65,0-5.56,2.87-9.8,7.94-9.8,3.29,0,4,2.15,5.38,2.15.78,0,1.31-.6,1.61-1.91h.72V13.92H118c-.71-6.87-2.57-12.55-6.87-12.55-3,0-3.58,3-3.58,5,0,8.9,13.32,12,13.32,24.37C120.91,37.1,117.44,41.7,112.13,41.7Zm22-4c0,1.67.54,2.27,1.73,2.57l1.56.36v.84h-12v-.84l1.56-.36c1.19-.3,1.73-.89,1.73-2.57V1.49h-1.31c-3.71,0-5.2,6-5.62,12.43h-.9V.3h21.09V13.92h-.89c-.42-6.39-1.91-12.43-5.62-12.43h-1.31v36.2Zm9.14,2.93,1.31-.36c1.2-.3,1.74-.9,1.74-2.57V4c0-1.67-.54-2.21-1.74-2.51l-1.31-.36V.3h11.41c5.08,0,9.8,3.22,9.8,10,0,5.2-2.45,8.84-7.41,10.16,5.44,1,5.44,3.58,6,10.45l.36,5.26c.18,2.92.3,3.58,1.14,3.58s1.25-2,1.25-4v-1h1v1.38c0,3.28-.72,5.61-4.12,5.61s-4.9-1.91-5.14-8.78l-.3-7.64c-.12-3.65-1-4.18-2.75-4.18h-2.8v16.6c0,1.67.54,2.33,1.73,2.63l1.31.3v.83H143.25v-.83Zm8.42-20.73h2c3.35,0,5-.89,5-8.84s-2.21-9.56-4.6-9.56h-2.38v18.4Zm24,20.37h4.12c5.37,0,6.39-6.09,7.11-12.42h.89V41.46H167.14v-.84l1.32-.36c1.19-.3,1.73-.9,1.73-2.57V4.06c0-1.67-.54-2.27-1.73-2.57l-1.32-.36V.3h20V13.92h-.9c-.66-6.4-1.91-12.43-6.51-12.43h-4.12v18l1.91-.06c2.57-.18,3.52-2.39,4.18-7.58h.9v16.6h-.9c-.54-6.51-1.55-7.52-4.24-7.7l-1.85-.06V40.26Zm22.16,0h4.12c5.38,0,6.39-6.09,7.11-12.42h.89V41.46h-20.6v-.84l1.31-.36c1.19-.3,1.73-.9,1.73-2.57V4.06c0-1.67-.54-2.27-1.73-2.57l-1.31-.36V.3h20V13.92h-.9c-.65-6.4-1.91-12.43-6.51-12.43h-4.12v18l1.91-.06c2.57-.18,3.52-2.39,4.18-7.58h.9v16.6h-.9c-.54-6.51-1.55-7.52-4.24-7.7l-1.85-.06V40.26Zm26.7-2.57c0,1.86.54,2.21,1.73,2.51l1.86.42v.84H215.77v-.84l1.56-.36c1.19-.3,1.73-.9,1.73-2.57V1.49h-1.32c-3.7,0-5.19,6-5.61,12.43h-.9V.3h21.09V13.92h-.9c-.41-6.39-1.9-12.43-5.61-12.43h-1.32v36.2ZM257.29,32c0,6.39-3.23,9.74-8.18,9.74-4.48,0-7.11-3.65-7.05-7.65.06-3.11,2.33-4.66,4.18-4.42a2.75,2.75,0,0,1,2.45,3.22c-.18,3-3.41,2.87-3.52,4.72-.12,1.14,1.37,2.81,3.28,2.81,3.34,0,3.34-4.24,3.34-7.47v-29c0-1.67-.53-2.15-1.85-2.45l-1.49-.36V.3h11.77v.83l-1.31.36c-1.2.3-1.62.84-1.62,2.51V32Zm13.92,9.8c-7,0-10.39-9.44-10.39-20.91S264.1,0,271.21,0s10.45,9.44,10.45,20.85S278.44,41.76,271.21,41.76Zm0-40.39c-3,0-4.48,2.39-4.48,19.24,0,17.38,1.37,19.83,4.48,19.83s4.54-2.45,4.54-19.95C275.75,3.76,274.32,1.37,271.21,1.37Zm34.11,39.25,1.31-.36c1.2-.3,1.73-.9,1.73-2.57V4c0-2-.89-2.69-3-2.69-2.63,0-3.29,1.2-3.29,4.6V31.84c0,6.45-2.27,9.91-7.82,9.91-5.73,0-9.08-3.46-9.08-9.73V4c0-1.67-.42-2.21-1.61-2.51l-1.32-.36V.3h11.89v.83l-1.61.36c-1.32.3-1.86.78-1.86,2.45v28.5c0,5.79,1.68,7.28,4.72,7.28,3.59,0,5.08-2,5.08-7.88V8.06c0-5-.06-6.21-2.21-6.69l-1.14-.24V.3h19.6c5.07,0,9.79,3.22,9.79,10,0,5.2-2.45,8.85-7.4,10.16,5.43,1,5.43,3.58,6,10.45l.36,5.26c.18,2.92.3,3.58,1.14,3.58s1.25-2,1.25-4v-1h1v1.37c0,3.28-.71,5.62-4.12,5.62s-4.89-1.92-5.13-8.78l-.3-7.65c-.12-3.65-1-4.18-2.75-4.18h-2.81v16.6c0,1.68.54,2.33,1.73,2.63l1.32.3v.84H305.32v-.84Zm8.42-20.73h2c3.35,0,5-.89,5-8.84s-2.21-9.56-4.6-9.56h-2.39v18.4ZM329.93,1.37l-.84-.24V.3h7.83l10.69,27.12V7.89c0-4.43.12-6-3.05-6.52l-1-.24V.3h8.84v.83l-.83.24c-2.57.6-2.39,2.69-2.39,6.87V41.46h-1.91L333.88,8.54V33.87c0,4.84,0,6.22,3.82,6.75v.84h-8.6v-.84l1.07-.18c2.21-.42,2.15-2.57,2.15-6.93V5C331.3,2.87,330.89,1.73,329.93,1.37ZM382.5,40.26h2.39c5.08,0,6.57-6,7.17-12.42H393V41.46H362.48v-.84l1.26-.24c2.57-.47,2.63-1.19,1.91-4.78l-1.14-5.37h-7.35l-.77,4.06c-.9,4.6-.42,5.73,1.37,6.09l1.26.24v.84h-8.31v-.84l1-.3c1.61-.47,2-1.43,2.86-5.49L361.88.06h1.79L371.32,36c.78,3.7,1.08,4.48,3.23,4.48,1.85,0,2.5-1,2.5-2.75V4c0-1.67-.53-2.21-1.73-2.51L374,1.13V.3h11.83v.89l-1.62.36c-1.19.24-1.73.78-1.73,2.45V40.26ZM357.41,28.85h6.81l-3.47-17Zm42.59,10A2.64,2.64,0,1,1,397.37,36,2.7,2.7,0,0,1,400,38.83Z"></path></g></g></svg> 